<svg width="136" height="32" viewBox="0 0 136 32" fill="none" xmlns="http://www.w3.org/2000/svg">
<path fill-rule="evenodd" clip-rule="evenodd" d="M2.92571 21.069C-0.97524 18.8161 -0.975236 13.1839 2.92572 10.931L20.48 0.792914C24.381 -1.45999 29.2571 1.35614 29.2571 5.86194V26.1381C29.2571 30.6439 24.3809 33.46 20.48 31.2071L2.92571 21.069ZM10.1033 18.5793C8.13456 17.4424 8.13457 14.6001 10.1033 13.4631L18.9624 8.34692C20.9311 7.20998 23.392 8.63116 23.392 10.905V21.1375C23.392 23.4113 20.9311 24.8325 18.9624 23.6956L10.1033 18.5793ZM95.8842 12.1612V24.767H91.9067V12.1612H95.8842ZM91.6714 8.91068C91.6714 8.35146 91.8753 7.8932 92.2833 7.53592C92.6912 7.17864 93.2208 7 93.8719 7C94.5231 7 95.0526 7.17864 95.4605 7.53592C95.8685 7.8932 96.0725 8.35146 96.0725 8.91068C96.0725 9.4699 95.8685 9.92816 95.4605 10.2854C95.0526 10.6427 94.5231 10.8214 93.8719 10.8214C93.2208 10.8214 92.6912 10.6427 92.2833 10.2854C91.8753 9.92816 91.6714 9.4699 91.6714 8.91068ZM45.1304 19.0117H47.837C49.2099 19.0117 50.3906 18.7864 51.379 18.3359C52.3754 17.8777 53.1403 17.2408 53.6737 16.4252C54.2072 15.6097 54.4739 14.6544 54.4739 13.5592C54.4739 12.4485 54.2072 11.4621 53.6737 10.6C53.1403 9.7301 52.3754 9.0466 51.379 8.54951C50.3906 8.05243 49.2099 7.80388 47.837 7.80388H41V24.767H45.1304V19.0117ZM45.1304 15.8544V10.9612H47.837C48.4175 10.9612 48.8882 11.0854 49.2491 11.334C49.61 11.5748 49.8728 11.8932 50.0375 12.2893C50.2101 12.6854 50.2964 13.1165 50.2964 13.5825C50.2964 14.0175 50.2101 14.4097 50.0375 14.7592C49.8728 15.101 49.61 15.3689 49.2491 15.5631C48.8882 15.7573 48.4175 15.8544 47.837 15.8544H45.1304ZM60.5107 16.7559V24.767H56.545V12.1612H60.2518L60.386 13.7796C60.4335 13.6919 60.483 13.6068 60.5342 13.5243C60.8481 13.0117 61.2285 12.6194 61.6757 12.3476C62.1229 12.068 62.625 11.9282 63.182 11.9282C63.3781 11.9282 63.5703 11.9398 63.7586 11.9631C63.9547 11.9864 64.1273 12.0214 64.2764 12.068L64.2057 15.7146C64.0488 15.699 63.837 15.6796 63.5703 15.6563C63.3036 15.633 63.08 15.6214 62.8995 15.6214C62.4367 15.6214 62.0366 15.6757 61.6992 15.7845C61.3698 15.8854 61.0952 16.0408 60.8755 16.2505C60.7269 16.3922 60.6053 16.5607 60.5107 16.7559ZM71.8194 24.5689C72.3726 24.2877 72.8403 23.9006 73.2226 23.4078L73.3374 24.767H77.056V12.1612H73.0785V20.9771C72.944 21.2243 72.7636 21.4313 72.5372 21.5981C72.1999 21.8466 71.7331 21.9709 71.1369 21.9709C70.878 21.9709 70.6466 21.9398 70.4426 21.8777C70.2465 21.8078 70.0817 21.7068 69.9483 21.5748C69.815 21.435 69.713 21.2641 69.6424 21.0621C69.5718 20.8602 69.5365 20.6194 69.5365 20.3398V12.1612H65.5708V20.3165C65.5708 21.1476 65.6728 21.8621 65.8767 22.4602C66.0886 23.0505 66.3828 23.5359 66.7593 23.9165C67.1359 24.2893 67.5831 24.565 68.1008 24.7437C68.6264 24.9146 69.2031 25 69.8307 25C70.5838 25 71.2467 24.8563 71.8194 24.5689ZM83.8812 24.767H82.3161L78.1621 12.1612H82.3514L84.3319 20.1069L86.3406 12.1612H90.5181L86.3524 24.767H84.7991H83.8812ZM97.8376 18.3476V18.5922C97.8376 19.5087 97.971 20.3592 98.2377 21.1437C98.5044 21.9204 98.8967 22.6 99.4145 23.1825C99.9322 23.7573 100.576 24.2039 101.344 24.5223C102.113 24.8408 102.996 25 103.992 25C104.988 25 105.867 24.8408 106.628 24.5223C107.389 24.2039 108.028 23.7573 108.546 23.1825C109.064 22.6 109.456 21.9204 109.723 21.1437C109.99 20.3592 110.123 19.5087 110.123 18.5922V18.3476C110.123 17.4233 109.99 16.5728 109.723 15.7961C109.456 15.0117 109.064 14.332 108.546 13.7573C108.028 13.1825 107.385 12.7359 106.616 12.4175C105.855 12.0913 104.973 11.9282 103.969 11.9282C102.972 11.9282 102.094 12.0913 101.333 12.4175C100.572 12.7359 99.9322 13.1825 99.4145 13.7573C98.8967 14.332 98.5044 15.0117 98.2377 15.7961C97.971 16.5728 97.8376 17.4233 97.8376 18.3476ZM101.803 18.5922V18.3476C101.803 17.8893 101.839 17.4583 101.909 17.0544C101.98 16.6427 102.097 16.2816 102.262 15.9709C102.427 15.6524 102.647 15.4039 102.921 15.2252C103.204 15.0466 103.553 14.9573 103.969 14.9573C104.392 14.9573 104.745 15.0466 105.028 15.2252C105.31 15.4039 105.534 15.6524 105.698 15.9709C105.863 16.2816 105.981 16.6427 106.051 17.0544C106.122 17.4583 106.157 17.8893 106.157 18.3476V18.5922C106.157 19.066 106.122 19.5087 106.051 19.9204C105.981 20.332 105.863 20.6932 105.698 21.0039C105.534 21.3068 105.31 21.5437 105.028 21.7146C104.753 21.8854 104.408 21.9709 103.992 21.9709C103.568 21.9709 103.215 21.8854 102.933 21.7146C102.651 21.5437 102.427 21.3068 102.262 21.0039C102.097 20.6932 101.98 20.332 101.909 19.9204C101.839 19.5087 101.803 19.066 101.803 18.5922ZM118.066 24.5689C118.619 24.2877 119.087 23.9006 119.469 23.4078L119.584 24.767H123.303V12.1612H119.325V20.9771C119.191 21.2243 119.01 21.4313 118.784 21.5981C118.447 21.8466 117.98 21.9709 117.384 21.9709C117.125 21.9709 116.893 21.9398 116.689 21.8777C116.493 21.8078 116.328 21.7068 116.195 21.5748C116.062 21.435 115.96 21.2641 115.889 21.0621C115.819 20.8602 115.783 20.6194 115.783 20.3398V12.1612H111.818V20.3165C111.818 21.1476 111.92 21.8621 112.123 22.4602C112.335 23.0505 112.63 23.5359 113.006 23.9165C113.383 24.2893 113.83 24.565 114.348 24.7437C114.873 24.9146 115.45 25 116.077 25C116.831 25 117.493 24.8563 118.066 24.5689ZM131.94 20.666C132.089 20.8214 132.164 21.0078 132.164 21.2252C132.164 21.4583 132.101 21.6641 131.975 21.8427C131.85 22.0136 131.666 22.1495 131.422 22.2505C131.187 22.3515 130.889 22.4019 130.528 22.4019C130.136 22.4019 129.791 22.3437 129.493 22.2272C129.194 22.1107 128.955 21.9282 128.775 21.6796C128.602 21.4311 128.508 21.1126 128.492 20.7243H124.797C124.797 21.4 125.009 22.068 125.433 22.7282C125.864 23.3806 126.5 23.9243 127.339 24.3592C128.178 24.7864 129.206 25 130.422 25C131.277 25 132.046 24.9029 132.729 24.7087C133.411 24.5146 133.996 24.2427 134.482 23.8932C134.968 23.5359 135.341 23.1243 135.6 22.6583C135.859 22.1845 135.988 21.668 135.988 21.1087C135.988 20.2155 135.753 19.5049 135.282 18.9767C134.819 18.4485 134.215 18.0408 133.47 17.7534C132.725 17.466 131.924 17.2447 131.069 17.0893C130.693 17.0194 130.371 16.9417 130.104 16.8563C129.838 16.7631 129.618 16.6621 129.445 16.5534C129.273 16.4369 129.143 16.3126 129.057 16.1806C128.979 16.0408 128.939 15.8854 128.939 15.7146C128.939 15.4738 129.006 15.2641 129.139 15.0854C129.273 14.9068 129.449 14.767 129.669 14.666C129.897 14.565 130.148 14.5146 130.422 14.5146C130.814 14.5146 131.128 14.5767 131.364 14.701C131.599 14.8175 131.768 14.9884 131.87 15.2136C131.979 15.4388 132.034 15.7107 132.034 16.0291H136C136 15.2214 135.772 14.5107 135.317 13.8971C134.87 13.2757 134.231 12.7942 133.399 12.4524C132.568 12.1029 131.579 11.9282 130.434 11.9282C129.602 11.9282 128.861 12.0369 128.21 12.2544C127.559 12.4641 127.006 12.7553 126.551 13.1282C126.103 13.4932 125.762 13.9165 125.527 14.3981C125.299 14.8718 125.186 15.3767 125.186 15.9126C125.186 16.4641 125.299 16.9534 125.527 17.3806C125.762 17.8078 126.084 18.1767 126.492 18.4874C126.9 18.7981 127.374 19.0621 127.916 19.2796C128.465 19.4971 129.049 19.6718 129.669 19.8039C130.32 19.9437 130.826 20.0835 131.187 20.2233C131.548 20.3553 131.799 20.5029 131.94 20.666Z" fill="#d2d8e5"/>
</svg>
